# xmcd CD database file
#
# Track frame offsets:
#	150
#	27564
#	53166
#	71622
#	93154
#	117935
#	132462
#	159056
#
# Disc length: 2463 seconds
#
# Revision: 0
# Processed by: cddbd v1.5.2PL0 Copyright (c) Steve Scherf et al.
# Submitted via: CDex 1.51
#
DISCID=64099d08
DTITLE=La Sonora Ponceña - Otra Navidad Criolla!
DYEAR=2008
DGENRE=Salsa
TTITLE0=Estelita
TTITLE1=Operacion Gandinga
TTITLE2=Vamonos Pal Campo
TTITLE3=La Vengo Siguiendo
TTITLE4=A Celebrar Navidad
TTITLE5=Arbolito de Navidad
TTITLE6=Mucho Amor y Paz
TTITLE7=Si Busca una Orquesta
EXTD=YEAR: 2008
EXTT0=
EXTT1=
EXTT2=
EXTT3=
EXTT4=
EXTT5=
EXTT6=
EXTT7=
PLAYORDER=
